<?xml version="1.0" encoding="UTF-8" standalone="no"?><!DOCTYPE svg PUBLIC "-//W3C//DTD SVG 1.1//EN" "http://www.w3.org/Graphics/SVG/1.1/DTD/svg11.dtd"><svg width="100%" height="100%" viewBox="0 0 87 121" version="1.1" xmlns="http://www.w3.org/2000/svg" xmlns:xlink="http://www.w3.org/1999/xlink" xml:space="preserve" xmlns:serif="http://www.serif.com/" style="fill-rule:evenodd;clip-rule:evenodd;stroke-linejoin:round;stroke-miterlimit:2;"><g><path d="M19.2,4.891c0,-2.649 -2.151,-4.8 -4.8,-4.8l-9.6,0c-2.649,0 -4.8,2.151 -4.8,4.8l0,110.4c0,2.649 2.151,4.8 4.8,4.8l9.6,0c2.649,0 4.8,-2.151 4.8,-4.8l0,-110.4Z" style="fill:#f7f9f8;"/><path d="M52.986,0.001c15.81,0.1 28.614,12.966 28.614,28.799c0,13.533 -9.354,24.898 -21.943,27.977c-0.796,0.112 -0.818,1.055 0,1.14c15.112,2.165 26.743,15.176 26.743,30.883c0,17.22 -13.98,31.2 -31.2,31.2l0,0.091l-26.4,0c-3.057,0 -4.8,-2.539 -4.8,-4.8l0,-26.491l0,-84c0,-2.184 1.785,-4.8 4.8,-4.8l24,0l0.186,0.001Z" style="fill:#f7f9f8;"/></g></svg>